<svg width="48" height="35" viewBox="0 0 48 35" fill="none" xmlns="http://www.w3.org/2000/svg">
<path d="M29.395 2.71747C30.1811 2.70464 30.7266 2.82855 31.4857 2.95557C33.4131 3.27525 35.1397 4.61414 36.2042 6.13899C37.3246 7.74434 37.7033 9.87367 37.3479 11.7581C37.2974 12.0273 37.2562 12.2985 37.2029 12.5678C39.0011 12.6494 40.7835 13.2034 42.1941 14.2353C47.4147 18.0547 45.9815 25.8911 39.8214 27.9982C39.1497 28.228 38.2782 28.2858 37.5815 28.3701C36.3245 28.5224 35.2776 28.0972 34.0668 27.9694C33.9192 27.953 33.1181 29.3791 32.9413 29.6152C32.057 30.7967 30.6698 31.6237 29.2991 32.2108C25.3383 33.6159 20.7738 33.0262 17.3828 30.7662C16.2776 30.0318 15.6582 29.2654 14.8347 28.2956C14.7103 28.1491 13.0415 29.0223 12.752 29.0521C12.658 29.0617 12.0596 29.2786 11.8873 29.2667C9.83397 29.6379 7.69396 29.3149 5.95278 28.1762C3.30857 26.4469 2.39345 23.0942 3.92607 20.3888C4.05534 20.1606 4.75851 19.3514 4.73823 19.1577C4.71108 18.8981 4.25737 18.2512 4.1512 17.9687C3.28671 15.4766 3.51509 12.2987 5.05482 10.0849C6.14166 8.54579 7.68013 7.49432 9.59942 7.13362C11.9426 6.69325 14.226 7.37421 16.1642 8.62974C16.2126 5.6035 18.446 4.0014 21.5026 4.66079C22.1563 4.80182 22.6898 5.19888 23.3121 5.3395C23.4515 5.37101 24.1173 4.62415 24.2426 4.51505C25.8077 3.18952 27.3891 2.78969 29.395 2.71747Z" fill="#FDFDFE"/>
<path d="M29.1411 4.56021C29.5637 4.48902 30.6676 4.61299 31.0954 4.71057C32.5894 5.05414 33.8759 5.95621 34.6659 7.21399C35.6261 8.71523 35.7963 10.3308 35.3699 12.0359C35.2457 12.7774 34.3906 13.9544 35.4963 14.3855C35.8334 14.5169 36.6863 14.4111 37.0807 14.409C41.4465 14.3854 44.2606 17.9055 43.2913 21.9387C42.9209 23.452 41.9405 24.7652 40.5625 25.5934C38.9376 26.5598 36.6949 26.8569 34.9585 26.1783C33.4133 25.5744 32.4965 24.6749 32.218 26.9462C32.0221 28.1275 30.7822 29.319 29.7727 29.9119C27.7178 31.1188 24.866 31.4042 22.548 30.9469C19.9722 30.4386 17.8769 29.3146 16.4472 27.2047C16.0406 26.5751 15.9072 25.5541 14.7878 25.875C14.6623 25.9287 14.4793 26.0252 14.3795 26.1174C12.3912 27.9554 8.85257 28.2164 6.73351 26.4223C5.79887 25.6309 5.16498 24.5516 5.11512 23.3013C5.08317 22.285 5.26621 21.4334 6.02078 20.6762C6.40331 20.2922 7.30564 19.6314 7.18557 19.0427C7.14305 18.8341 6.69436 18.4083 6.53789 18.2115C5.54938 16.9685 5.46996 15.2015 5.61651 13.7074C5.72547 12.6705 6.33228 11.3705 7.05712 10.6122C8.00182 9.62373 9.3686 8.89228 10.7892 8.87752C12.8345 8.76432 14.606 9.66956 16.0536 10.9755C16.5517 11.4248 17.0686 12.3953 17.7926 12.3453C18.1128 12.321 18.4101 12.1773 18.6201 11.9454C19.163 11.3432 18.5971 10.5227 18.357 9.83308C18.2314 9.47826 18.1536 9.10967 18.1254 8.73612C18.0821 8.11059 18.1722 7.4338 18.6273 6.94883C18.9626 6.59138 19.424 6.40045 19.9197 6.36247C21.8414 6.21533 22.6404 7.6234 23.6632 7.54899C24.3179 7.50138 24.7353 6.70649 25.1245 6.27415C26.0977 5.19288 27.6906 4.66323 29.1411 4.56021Z" fill="#9FCBEB"/>
<path d="M10.9792 12.045C11.4067 11.967 12.2267 12.0496 12.6452 12.1195C17.1631 12.874 16.9724 17.7471 12.7652 18.8515C12.1682 19.0082 11.6521 19.2096 11.2556 18.6268C11.1944 17.3454 11.2221 15.6095 11.251 14.3222C11.2655 14.2455 11.2765 14.1579 11.3282 14.0949C11.4033 14.0032 11.5157 13.9622 11.6334 13.9515C11.8024 13.9362 12.0264 13.9357 12.1593 14.0537C12.3898 14.2583 12.328 17.3487 12.3563 17.8846C13.6881 17.502 15.0675 16.5355 14.853 15.0519C14.7752 14.5135 14.4609 14.0802 14.0143 13.7612C12.8594 12.9369 11.3518 13.0073 9.99735 13.2498C9.423 13.3527 9.01879 12.9956 9.3467 12.5004C9.54944 12.1943 10.5842 12.0828 10.9792 12.045Z" fill="#FDFDFE"/>
<path d="M31.4669 15.4135C31.7511 15.385 31.9614 15.5993 32.1637 15.7653C32.7158 15.5696 33.1898 15.5676 33.7362 15.7831L33.966 16.0707C35.3896 15.1859 36.3335 15.8066 36.6265 17.3132C36.7035 17.7097 36.8164 18.6216 36.2056 18.6206C36.1211 18.6516 35.7284 18.5706 35.6918 18.4813C35.5006 18.0139 35.6583 17.1513 35.2044 16.7848C34.9523 16.7098 34.864 16.8801 34.7389 17.0613C34.5063 17.5256 34.536 19.132 33.5335 18.4815C33.1771 18.2502 33.331 17.3922 33.265 16.945C33.1439 16.7822 33.0288 16.6935 32.86 16.5807C32.2877 17.3483 32.4235 18.1126 32.0284 18.8978C31.8725 18.91 31.7127 18.9254 31.5563 18.9212C31.4387 18.918 31.3179 18.8937 31.2349 18.8088C30.8479 18.4127 30.9876 16.3532 31.0046 15.7564C31.1756 15.5853 31.2498 15.5251 31.4669 15.4135Z" fill="#FDFDFE"/>
<path d="M23.8707 20.8215C24.1997 20.8046 24.4724 20.8284 24.772 20.9861C25.0631 21.1369 25.276 21.3957 25.3602 21.7013C25.4587 22.0455 25.4064 22.413 25.2152 22.7196C24.8171 23.3697 23.97 23.7193 23.2388 23.9013C23.9616 24.4117 24.156 24.2792 24.9951 24.3858C25.1425 24.6535 25.3228 25.2285 24.8869 25.3488C23.9553 25.5143 22.7438 25.2628 22.323 24.3742C21.9763 23.642 22.1253 24.0934 21.5223 23.7995C21.2914 23.2271 21.4122 23.0548 22.0023 22.9414C22.3416 21.8616 22.5419 21.0593 23.8707 20.8215Z" fill="#FDFDFE"/>
<path d="M23.9479 21.8414C24.0704 21.8551 24.1477 21.8541 24.2477 21.9227C24.4376 22.2473 23.8336 22.5741 23.5732 22.692C23.4543 22.7466 23.4255 22.7843 23.3127 22.7701L23.2682 22.7022C23.2467 22.3545 23.5939 21.9367 23.9479 21.8414Z" fill="#9FCBEB"/>
<path d="M23.7547 14.4645C25.9256 14.2653 26.0331 16.9816 23.2075 17.4913C23.3265 17.6501 23.4607 17.7827 23.6295 17.8929C24.0185 17.9502 24.4849 17.9471 24.9008 17.9923C25.078 18.2938 25.2433 18.7415 24.7993 18.9128C23.9654 19.1193 22.9043 18.8904 22.3974 18.1899C22.3029 18.0938 22.1357 17.6644 22.0341 17.6171C21.5682 17.4001 21.1465 17.5157 21.4388 16.8024C21.492 16.6724 21.8139 16.5747 21.9841 16.5496C22.1411 15.5329 22.6169 14.69 23.7547 14.4645Z" fill="#FDFDFE"/>
<path d="M23.9138 15.479C24.0358 15.487 24.1138 15.5163 24.1998 15.5969C24.3053 15.9422 23.6546 16.2728 23.374 16.3724C23.3016 16.4158 23.2963 16.4236 23.214 16.4265L23.1753 16.3596C23.1839 15.9391 23.5227 15.6221 23.9138 15.479Z" fill="#9FCBEB"/>
<path d="M18.3424 20.4773C18.6003 20.4614 18.7124 20.4914 18.9516 20.5817L18.9577 20.6C19.1023 21.0456 19.0623 21.3452 19.0565 21.8083C19.1851 21.8002 19.3138 21.7929 19.4425 21.7863C19.9621 21.7602 20.7182 21.8384 20.2496 22.6949C20.1301 22.9134 19.3151 22.8971 19.0161 22.9064C19.0141 23.4328 19.0526 23.7323 19.198 24.2379C19.5404 24.3026 20.4334 24.3309 20.2932 24.8937C20.2338 25.1321 20.1247 25.2441 19.9069 25.3642C18.8605 25.3704 18.1786 25.1736 17.9601 24.0554C17.8886 23.689 17.838 23.3809 17.8726 23.0031C17.5353 23.0087 16.9839 23.0678 16.7054 22.8676C16.4999 22.7199 16.4965 22.3188 16.6738 22.1498C16.9516 21.885 17.5244 21.9124 17.9032 21.8941C17.9636 21.3834 17.8377 20.7556 18.3424 20.4773Z" fill="#FDFDFE"/>
<path d="M27.8657 21.7091C28.9087 21.6445 30.1433 22.6757 28.9587 23.086C28.6054 23.0069 28.2492 22.7058 27.9694 22.7005C27.5934 22.6932 27.4629 23.9901 27.7087 24.1784C27.9547 24.2088 28.7295 23.6589 29.0385 23.567C29.2786 23.4956 29.2731 23.488 29.5441 23.4492C29.8577 23.6406 30.1339 23.8827 30.3601 24.1648C30.4474 24.3892 30.5168 24.8512 30.1903 24.9365C29.8472 25.0261 29.5408 24.8348 29.25 24.6891C28.9164 24.9019 28.498 25.1969 28.1241 25.3013C26.4221 25.7765 26.0855 23.5124 26.7349 22.5045C27.0162 22.0679 27.3568 21.8319 27.8657 21.7091Z" fill="#FDFDFE"/>
<path d="M27.7696 15.3254C28.2256 15.3042 28.8434 15.5158 29.0841 15.9115C29.2222 16.1386 29.1264 16.607 28.8649 16.7127C28.4572 16.8773 28.0055 16.152 27.6258 16.3563C27.4028 16.4763 27.3534 16.992 27.3234 17.2174C27.3005 17.4151 27.2725 17.6368 27.3932 17.817C28.0405 18.1584 28.8703 16.1102 30.0999 17.8475C30.2242 18.1018 30.2863 18.4538 29.91 18.5509C29.5389 18.6466 29.2705 18.4894 28.956 18.3279C28.5368 18.573 28.077 18.8703 27.5841 18.9366C26.7904 19.0371 26.2523 18.4848 26.188 17.7621C26.0921 16.6837 26.4231 15.4419 27.7696 15.3254Z" fill="#FDFDFE"/>
<path d="M17.2251 15.4525C17.9942 15.3887 17.9333 16.1539 18.0267 16.6917C18.4121 16.4765 18.8046 16.3046 19.2488 16.2396C20.0847 16.1172 21.0615 16.3814 20.2466 17.2897C19.8513 17.2893 19.4059 17.2633 19.034 17.3771C18.3427 17.7364 18.3143 18.5751 17.7897 18.9348C17.6901 19.0031 17.5894 19.0187 17.4698 18.9995C17.2986 18.9719 17.1502 18.8839 17.0523 18.7466C16.8605 18.4775 16.8533 16.1203 16.9414 15.7414C16.976 15.5925 17.1001 15.528 17.2251 15.4525Z" fill="#FDFDFE"/>
</svg>
